<?xml version="1.0" standalone="no"?>
<!DOCTYPE svg PUBLIC "-//W3C//DTD SVG 20010904//EN"
 "http://www.w3.org/TR/2001/REC-SVG-20010904/DTD/svg10.dtd">
<svg version="1.0" xmlns="http://www.w3.org/2000/svg"
 width="1080.000000pt" height="1080.000000pt" viewBox="0 0 1080.000000 1080.000000"
 preserveAspectRatio="xMidYMid meet">
<metadata>
Created by potrace 1.14, written by Peter Selinger 2001-2017
</metadata>
<g transform="translate(0.000000,1080.000000) scale(0.100000,-0.100000)"
fill="#000000" stroke="none">
<path d="M5134 9567 c-115 -118 -219 -238 -323 -372 -34 -44 -68 -87 -75 -96
-221 -274 -501 -762 -639 -1114 -169 -432 -240 -784 -240 -1190 1 -388 73
-746 238 -1170 40 -102 133 -311 155 -345 5 -8 28 -50 50 -93 39 -74 134 -238
184 -317 34 -53 80 -124 88 -135 5 -5 47 -64 94 -130 88 -122 261 -340 342
-430 77 -86 234 -245 242 -245 16 0 285 283 326 344 107 157 214 524 214 731
0 87 -22 192 -52 252 -31 63 -98 129 -155 154 -46 20 -57 21 -243 13 -393 -18
-465 -9 -541 67 -84 84 -106 189 -75 367 29 164 21 199 -60 263 -58 47 -68 64
-66 117 3 71 58 125 143 140 l44 8 -45 24 c-137 71 -190 123 -190 188 0 43 12
65 72 130 54 60 63 84 55 144 -8 58 -40 86 -112 99 -33 6 -77 15 -97 20 -101
26 -147 148 -95 250 12 24 76 116 142 204 150 200 189 256 265 375 l61 95 -68
8 c-68 7 -153 43 -161 67 -3 8 2 10 14 7 38 -11 173 -19 213 -12 36 6 41 10
41 34 0 28 -29 73 -89 141 -64 72 -64 124 5 385 69 264 143 463 258 695 70
142 183 326 193 316 3 -3 0 -92 -7 -198 -41 -639 74 -1160 377 -1706 35 -61
63 -116 63 -121 0 -5 4 -11 8 -13 10 -4 258 -439 312 -547 183 -367 252 -653
253 -1046 1 -343 -63 -717 -154 -897 -23 -45 -25 -61 -4 -31 56 80 248 468
309 623 81 208 130 367 176 570 152 673 39 1412 -328 2135 -94 185 -164 303
-300 510 -107 163 -147 218 -281 385 -142 178 -400 460 -421 460 -3 0 -56 -51
-116 -113z"/>
<path d="M2750 8668 c-6 -29 -15 -71 -20 -93 -50 -216 -77 -798 -50 -1090 13
-145 37 -327 50 -375 5 -19 23 -93 40 -165 33 -145 96 -339 139 -430 15 -33
32 -71 36 -85 4 -14 38 -79 75 -145 126 -225 144 -247 50 -59 -33 65 -60 123
-60 127 0 5 -7 23 -15 40 -54 117 -149 465 -174 637 -63 434 -57 872 15 1285
14 77 27 151 29 164 2 13 7 27 12 32 9 9 217 -192 236 -227 6 -11 13 -21 17
-24 13 -10 120 -157 120 -165 0 -4 10 -22 23 -39 31 -41 101 -187 131 -273 32
-92 64 -230 76 -333 13 -110 13 -467 -1 -719 -14 -265 8 -568 51 -706 6 -16
21 -68 35 -115 25 -84 45 -135 91 -237 13 -28 24 -56 24 -62 0 -5 3 -11 8 -13
4 -1 22 -32 41 -68 19 -36 37 -67 40 -70 3 -3 13 -18 21 -34 27 -53 95 -116
190 -176 30 -19 57 -37 60 -40 10 -13 164 -110 167 -106 2 2 -24 59 -58 127
-90 179 -99 198 -121 254 -11 27 -25 64 -32 80 -33 76 -40 94 -63 160 -13 39
-37 115 -53 170 -17 55 -37 123 -45 150 -19 65 -50 220 -72 365 -22 143 -25
605 -5 745 20 145 64 379 72 390 4 6 11 27 14 49 10 53 82 276 117 361 l28 70
-35 33 c-20 17 -39 32 -43 32 -3 0 -22 15 -42 33 -20 17 -43 37 -52 42 -39 25
-203 135 -212 142 -65 52 -338 201 -520 282 -38 18 -77 36 -86 41 -9 5 -54 23
-100 41 -46 18 -88 36 -93 41 -26 22 -44 7 -56 -44z m7 -95 c-3 -10 -5 -4 -5
12 0 17 2 24 5 18 2 -7 2 -21 0 -30z m328 -213 c3 -5 1 -10 -4 -10 -6 0 -11 5
-11 10 0 6 2 10 4 10 3 0 8 -4 11 -10z m535 -85 c11 -13 10 -14 -4 -9 -9 3
-16 10 -16 15 0 13 6 11 20 -6z m-913 -107 c-3 -8 -6 -5 -6 6 -1 11 2 17 5 13
3 -3 4 -12 1 -19z m-10 -160 c-3 -8 -6 -5 -6 6 -1 11 2 17 5 13 3 -3 4 -12 1
-19z m1273 12 c0 -5 -2 -10 -4 -10 -3 0 -8 5 -11 10 -3 6 -1 10 4 10 6 0 11
-4 11 -10z m-1203 -137 c-3 -10 -5 -4 -5 12 0 17 2 24 5 18 2 -7 2 -21 0 -30z
m1120 -85 c-3 -8 -6 -5 -6 6 -1 11 2 17 5 13 3 -3 4 -12 1 -19z m-410 -190
c-3 -8 -6 -5 -6 6 -1 11 2 17 5 13 3 -3 4 -12 1 -19z m30 -200 c-3 -7 -5 -2
-5 12 0 14 2 19 5 13 2 -7 2 -19 0 -25z m270 10 c-3 -8 -6 -5 -6 6 -1 11 2 17
5 13 3 -3 4 -12 1 -19z m-1060 -80 c-3 -8 -6 -5 -6 6 -1 11 2 17 5 13 3 -3 4
-12 1 -19z m1050 0 c-3 -8 -6 -5 -6 6 -1 11 2 17 5 13 3 -3 4 -12 1 -19z
m-260 -530 c-3 -7 -5 -2 -5 12 0 14 2 19 5 13 2 -7 2 -19 0 -25z m0 -510 c-3
-8 -6 -5 -6 6 -1 11 2 17 5 13 3 -3 4 -12 1 -19z m247 -774 c3 -8 2 -12 -4 -9
-6 3 -10 10 -10 16 0 14 7 11 14 -7z"/>
<path d="M7696 8711 c-3 -5 -18 -12 -33 -16 -78 -19 -405 -173 -595 -281 -152
-87 -458 -294 -516 -351 -7 -7 -19 -16 -27 -21 -12 -6 -9 -22 18 -92 18 -47
48 -134 66 -195 18 -60 37 -119 41 -130 13 -32 47 -189 74 -345 76 -442 42
-915 -103 -1395 -31 -103 -98 -288 -132 -362 -10 -23 -19 -44 -19 -47 0 -3
-32 -72 -72 -153 -40 -81 -72 -154 -71 -161 1 -7 -1 -11 -5 -8 -3 3 -11 -6
-19 -20 -17 -35 -16 -44 3 -19 8 11 17 19 20 17 5 -3 126 67 134 78 3 4 25 20
50 35 110 69 147 105 208 203 180 287 267 553 297 907 12 137 12 208 -1 500
-13 285 -13 366 -3 500 7 88 12 165 11 172 -2 6 2 14 8 18 5 3 10 18 10 33 0
54 64 254 109 342 80 154 105 194 209 330 71 93 252 274 262 263 11 -12 46
-203 72 -393 19 -142 22 -212 22 -500 0 -297 -2 -352 -22 -490 -37 -251 -74
-409 -142 -609 -22 -63 -36 -119 -33 -124 3 -6 1 -7 -4 -4 -6 4 -14 -5 -17
-19 -4 -15 -32 -76 -62 -136 -86 -172 -70 -155 42 46 233 417 354 951 354
1559 0 257 -35 602 -87 850 -5 26 -35 38 -47 18z m101 -543 c-3 -7 -5 -2 -5
12 0 14 2 19 5 13 2 -7 2 -19 0 -25z m10 -160 c-3 -7 -5 -2 -5 12 0 14 2 19 5
13 2 -7 2 -19 0 -25z m-676 -91 c-10 -9 -11 -8 -5 6 3 10 9 15 12 12 3 -3 0
-11 -7 -18z m-422 -412 c0 -5 -4 -3 -9 5 -5 8 -9 22 -9 30 0 16 17 -16 18 -35z
m58 -327 c-3 -8 -6 -5 -6 6 -1 11 2 17 5 13 3 -3 4 -12 1 -19z m10 -80 c-3 -8
-6 -5 -6 6 -1 11 2 17 5 13 3 -3 4 -12 1 -19z m220 -210 c-3 -8 -6 -5 -6 6 -1
11 2 17 5 13 3 -3 4 -12 1 -19z m-210 -120 c-3 -7 -5 -2 -5 12 0 14 2 19 5 13
2 -7 2 -19 0 -25z m835 -115 c-3 -16 -7 -22 -10 -15 -4 13 4 42 11 42 2 0 2
-12 -1 -27z m-625 -275 c-3 -8 -6 -5 -6 6 -1 11 2 17 5 13 3 -3 4 -12 1 -19z
m-290 -290 c-3 -8 -6 -5 -6 6 -1 11 2 17 5 13 3 -3 4 -12 1 -19z m-230 -740
c-3 -8 -6 -5 -6 6 -1 11 2 17 5 13 3 -3 4 -12 1 -19z m-72 -148 c3 -5 1 -10
-4 -10 -6 0 -11 5 -11 10 0 6 2 10 4 10 3 0 8 -4 11 -10z"/>
<path d="M7356 6095 c-9 -26 -7 -32 5 -12 6 10 9 21 6 23 -2 3 -7 -2 -11 -11z"/>
<path d="M1713 3894 c-3 -8 -1 -20 4 -25 5 -5 1485 -8 3863 -7 l3853 3 3 23 4
22 -3860 0 c-3496 0 -3861 -1 -3867 -16z"/>
<path d="M4379 3739 c-20 -20 -21 -29 -17 -146 3 -68 9 -128 15 -134 12 -12
34 43 64 163 20 82 20 89 5 113 -20 31 -39 32 -67 4z m11 -234 c-2 -11 -8 21
-13 70 -4 50 -5 106 0 125 6 28 9 13 13 -70 3 -58 3 -114 0 -125z"/>
<path d="M2912 3722 c-87 -46 -139 -137 -149 -262 -16 -200 133 -323 280 -230
121 77 176 280 110 411 -37 72 -78 99 -152 99 -35 0 -69 -7 -89 -18z m120 -34
c18 -32 14 -192 -7 -304 -19 -103 -47 -157 -78 -152 -40 6 -49 42 -43 183 6
137 22 228 50 270 21 32 61 33 78 3z m-156 -23 c-9 -14 -23 -35 -30 -47 -22
-34 -46 -136 -46 -195 0 -29 9 -75 19 -103 22 -59 7 -56 -20 4 -23 51 -25 153
-4 222 8 27 31 70 50 97 37 49 59 65 31 22z m211 -155 c-3 -69 -12 -129 -27
-173 -12 -38 -23 -67 -25 -65 -2 2 5 53 15 113 11 61 20 153 21 205 1 82 2 90
11 60 6 -19 8 -82 5 -140z"/>
<path d="M4577 3710 c-42 -37 -61 -98 -55 -180 5 -72 24 -101 94 -148 90 -59
114 -82 114 -105 0 -32 -18 -47 -58 -47 -46 0 -112 65 -137 135 -9 28 -20 57
-23 65 -5 15 -13 -33 -26 -157 -5 -42 -3 -63 4 -63 5 0 10 9 10 20 0 26 8 25
64 -6 40 -23 56 -26 111 -22 77 5 110 25 143 88 16 33 22 61 22 113 0 103 -29
145 -133 191 -63 27 -86 61 -67 97 27 50 125 1 177 -89 l28 -47 6 40 c7 38 12
108 10 129 -1 6 -7 2 -14 -8 -12 -16 -15 -16 -61 3 -31 14 -69 21 -111 21 -57
0 -68 -3 -98 -30z m25 -217 c18 -19 49 -43 69 -53 19 -10 50 -32 67 -48 27
-25 32 -37 32 -74 l-1 -43 -13 31 c-9 20 -35 44 -72 67 -117 71 -145 110 -143
200 l1 52 13 -49 c8 -28 27 -63 47 -83z"/>
<path d="M1842 3713 c2 -10 12 -19 23 -22 25 -4 35 -19 35 -53 0 -39 -134
-345 -165 -378 -15 -16 -24 -33 -21 -39 4 -6 36 -11 72 -11 57 0 64 2 64 20 0
13 -7 20 -20 20 -24 0 -30 35 -15 98 5 22 10 23 77 20 l72 -3 9 -34 c11 -44 2
-77 -23 -84 -11 -3 -20 -12 -20 -21 0 -14 17 -16 120 -16 113 0 120 1 120 20
0 13 -7 20 -18 20 -15 0 -26 37 -71 240 l-54 240 -94 0 c-84 0 -94 -2 -91 -17z
m138 -188 c18 -82 39 -175 46 -205 17 -66 17 -70 1 -70 -8 0 -21 40 -35 108
-13 59 -34 153 -48 208 -13 56 -24 110 -24 120 0 16 2 16 13 4 8 -8 29 -82 47
-165z m-31 -100 c1 -19 -5 -21 -51 -19 -29 1 -54 2 -55 3 -3 1 27 78 53 138
l16 38 19 -70 c10 -38 18 -79 18 -90z"/>
<path d="M2266 3722 c-7 -12 10 -35 22 -28 16 10 42 -22 42 -52 0 -61 -32
-339 -42 -364 -8 -22 -17 -28 -39 -28 -22 0 -29 -5 -29 -20 0 -20 5 -20 127
-18 90 2 128 7 130 15 3 7 -7 17 -21 23 -25 9 -26 13 -25 82 1 40 4 84 9 98 6
22 8 23 15 7 4 -10 17 -64 29 -120 l22 -102 94 0 c82 0 95 2 98 18 2 11 -3 17
-16 17 -16 0 -23 10 -31 50 -6 28 -11 57 -11 63 0 7 -13 24 -30 39 -34 29 -39
48 -12 48 31 0 83 40 98 75 17 42 18 144 1 166 -26 35 -54 39 -241 39 -102 0
-187 -4 -190 -8z m275 -43 c18 -18 21 -30 17 -85 -5 -80 -31 -114 -75 -98 -33
11 -38 32 -28 122 6 52 11 65 28 72 32 13 35 12 58 -11z m-164 -31 c-3 -24
-13 -123 -23 -220 -11 -112 -22 -178 -29 -178 -7 0 -4 66 12 218 12 119 22
218 23 220 0 1 5 2 11 2 8 0 10 -14 6 -42z m233 -25 c0 -65 -15 -129 -32 -139
-8 -5 -9 -1 -4 12 4 10 10 56 13 102 7 93 23 112 23 25z m-87 -240 c30 -133
30 -133 14 -133 -9 0 -19 26 -31 83 -9 45 -19 90 -22 100 -3 11 0 17 10 17 10
0 19 -21 29 -67z"/>
<path d="M3250 3711 c0 -12 9 -21 24 -25 45 -11 60 -65 53 -193 -6 -135 -29
-193 -89 -232 -66 -43 -52 -52 74 -49 115 3 146 16 95 39 -29 13 -52 51 -61
101 -7 40 3 168 13 168 3 0 26 -54 50 -120 24 -66 48 -120 52 -120 7 0 16 22
94 235 42 115 57 144 50 100 -3 -16 -12 -97 -21 -180 -9 -82 -20 -157 -25
-167 -5 -9 -21 -18 -36 -20 -17 -2 -28 -9 -28 -18 0 -13 22 -15 140 -15 125 0
140 2 143 18 3 14 -4 17 -32 17 -50 0 -52 18 -31 228 19 200 27 222 80 222 25
0 35 4 35 15 0 13 -17 15 -111 13 l-111 -3 -23 -65 c-37 -106 -52 -137 -58
-120 -3 8 -20 54 -38 103 l-32 87 -104 0 c-94 0 -103 -2 -103 -19z m395 -98
c-10 -138 -35 -356 -40 -362 -3 -2 -8 -2 -11 1 -6 7 35 428 43 440 12 21 15 0
8 -79z m-221 -73 c53 -140 65 -192 41 -180 -6 2 -15 18 -21 35 -40 110 -65
178 -87 233 -23 57 -24 62 -8 62 14 0 31 -34 75 -150z"/>
<path d="M3944 3719 c-3 -6 -1 -16 5 -22 6 -6 11 -8 11 -4 0 4 9 3 20 -3 14
-8 20 -21 20 -46 0 -45 -125 -337 -162 -380 -42 -48 -37 -54 42 -54 63 0 70 2
70 20 0 13 -7 20 -19 20 -24 0 -30 24 -18 78 l8 43 72 -3 c71 -3 71 -3 80 -35
12 -42 2 -79 -23 -86 -11 -3 -20 -12 -20 -21 0 -15 15 -16 117 -14 99 3 118 6
121 19 2 9 -5 19 -16 21 -15 4 -23 26 -39 99 -11 52 -36 158 -54 237 l-33 142
-87 0 c-53 0 -91 -4 -95 -11z m107 -60 c7 -39 53 -244 75 -337 15 -62 13 -86
-5 -66 -8 8 -101 408 -101 435 0 25 25 0 31 -32z m-16 -156 c9 -43 18 -82 19
-88 1 -9 -91 -16 -106 -8 -7 4 6 40 46 136 9 20 18 37 20 37 2 0 12 -35 21
-77z"/>
<path d="M5132 3713 c2 -10 10 -17 17 -15 27 6 41 -20 41 -78 0 -76 -30 -331
-41 -352 -5 -9 -21 -18 -36 -20 -17 -2 -29 -10 -31 -20 -3 -17 11 -18 178 -18
l182 0 33 33 c58 58 70 174 24 224 l-21 21 21 29 c47 64 44 185 -5 203 -14 6
-102 10 -195 10 -157 0 -170 -1 -167 -17z m94 -192 c-8 -75 -18 -166 -21 -203
-4 -38 -11 -68 -16 -68 -5 0 -9 8 -9 18 0 41 41 408 47 422 14 33 14 -37 -1
-169z m172 157 c19 -19 15 -109 -8 -145 -16 -26 -26 -33 -51 -33 l-32 0 6 68
c7 90 20 122 50 122 13 0 28 -5 35 -12z m62 -65 c0 -40 -24 -103 -40 -103 -7
0 -7 6 1 22 6 11 12 50 13 85 1 53 3 61 14 46 6 -9 12 -32 12 -50z m-69 -165
c15 -29 5 -140 -17 -173 -12 -19 -25 -25 -50 -25 -34 0 -34 0 -34 49 0 26 3
76 6 110 l7 61 38 0 c29 0 41 -5 50 -22z m56 -41 c7 -43 -13 -121 -35 -139
-13 -11 -15 -10 -9 6 18 48 28 114 21 151 -4 30 -3 37 5 29 7 -6 14 -27 18
-47z"/>
<path d="M5635 3719 c-9 -13 2 -24 23 -24 9 0 22 -12 29 -26 11 -22 10 -58 -6
-201 -10 -96 -23 -184 -30 -195 -6 -12 -23 -23 -38 -25 -17 -2 -28 -9 -28 -18
0 -12 21 -16 114 -18 126 -3 153 6 112 37 -23 18 -24 21 -17 102 10 107 16
119 66 119 21 0 41 -4 45 -10 3 -5 1 -49 -5 -97 -9 -74 -14 -91 -35 -108 -47
-39 -34 -45 94 -45 93 0 120 3 124 14 7 19 -1 26 -29 26 -16 0 -25 7 -30 23
-6 27 24 349 36 382 10 26 36 49 48 41 12 -7 35 18 25 27 -3 4 -57 7 -119 7
-113 0 -145 -10 -112 -34 24 -18 28 -44 22 -117 l-7 -69 -54 0 -55 0 6 40 c3
22 9 58 12 81 4 24 14 45 25 52 10 6 19 20 19 29 0 16 -12 18 -114 18 -71 0
-117 -4 -121 -11z m106 -72 c-7 -105 -39 -389 -45 -394 -3 -4 -8 -4 -11 -2 -5
6 33 414 41 438 8 26 18 0 15 -42z m227 -34 c-4 -43 -12 -132 -18 -198 -13
-138 -18 -165 -32 -165 -7 0 -9 16 -5 43 3 23 13 119 22 212 19 186 21 199 33
191 4 -2 5 -40 0 -83z"/>
<path d="M6265 3720 c-9 -15 4 -31 23 -28 10 2 22 -9 30 -26 13 -27 11 -37
-48 -180 -65 -156 -85 -195 -119 -235 -11 -13 -18 -28 -15 -32 3 -5 34 -9 69
-9 47 0 64 4 69 15 4 11 -3 19 -19 25 -20 7 -25 17 -25 42 0 73 5 78 81 78 65
0 70 -2 79 -26 19 -48 13 -84 -16 -94 -14 -6 -24 -16 -21 -23 2 -8 38 -13 120
-15 112 -3 117 -2 117 18 0 11 -7 20 -15 20 -8 0 -18 16 -24 38 -12 45 -101
430 -101 437 0 10 -179 5 -185 -5z m150 -248 c42 -193 48 -238 28 -219 -10 11
-102 430 -96 440 12 19 23 -16 68 -221z m-55 23 c18 -96 21 -90 -35 -91 -27 0
-53 1 -57 3 -3 2 5 31 19 66 14 34 30 73 35 87 12 32 22 16 38 -65z"/>
<path d="M6690 3716 c0 -9 8 -16 18 -16 47 0 51 -43 26 -271 -8 -79 -20 -151
-25 -161 -6 -11 -21 -18 -39 -18 -23 0 -30 -4 -30 -20 0 -20 5 -20 127 -18 90
2 128 7 130 15 3 7 -8 18 -23 23 l-27 11 6 85 c6 105 21 126 36 54 6 -29 18
-83 27 -121 l16 -69 94 0 c87 0 94 1 94 20 0 13 -7 20 -18 20 -14 0 -21 13
-31 63 -9 47 -20 70 -42 91 -32 31 -37 46 -13 46 34 0 81 32 97 66 24 50 23
155 -2 185 -19 24 -23 24 -220 27 -177 3 -201 1 -201 -12z m90 -253 c-12 -114
-24 -210 -26 -212 -14 -14 -15 22 -4 126 6 65 16 160 21 211 9 93 20 135 27
100 2 -10 -6 -111 -18 -225z m188 209 c20 -25 11 -135 -12 -161 -23 -25 -49
-27 -71 -5 -13 14 -15 29 -9 88 9 92 18 110 52 101 15 -3 33 -14 40 -23z m65
-21 c6 -29 -6 -132 -18 -151 -12 -19 -26 -11 -16 8 6 11 11 53 13 95 3 80 11
98 21 48z m-99 -218 c7 -24 36 -162 36 -174 0 -5 -6 -9 -13 -9 -8 0 -19 32
-30 93 -10 50 -17 95 -17 100 0 14 19 7 24 -10z"/>
<path d="M7280 3711 c0 -13 8 -21 22 -23 14 -2 26 -13 32 -29 7 -22 0 -49 -39
-145 -58 -143 -114 -254 -132 -261 -7 -3 -13 -14 -13 -25 0 -17 6 -19 67 -16
71 3 94 21 49 38 -29 10 -35 46 -16 95 10 25 12 26 82 23 l73 -3 3 -57 c3 -52
1 -57 -20 -60 -13 -2 -23 -10 -23 -18 0 -12 20 -15 120 -15 106 0 120 2 123
18 2 12 -3 17 -17 17 -12 0 -21 2 -21 5 0 2 -20 94 -45 202 -25 109 -49 214
-53 233 l-8 35 -92 3 c-86 3 -92 1 -92 -17z m120 -113 c20 -93 68 -304 76
-330 3 -12 0 -18 -10 -18 -8 0 -17 13 -21 33 -9 45 -63 280 -79 347 -7 30 -11
59 -9 63 11 19 26 -15 43 -95z m-31 -80 c6 -35 14 -74 17 -88 5 -24 4 -25 -50
-26 -31 0 -56 4 -56 10 0 15 64 165 71 166 3 0 11 -28 18 -62z"/>
<path d="M7696 3668 c-4 -35 -9 -85 -12 -113 l-5 -50 45 93 c25 50 50 92 55
92 13 0 13 -1 1 -115 -5 -49 -14 -134 -20 -188 -12 -114 -20 -135 -57 -139
-17 -2 -29 -10 -31 -20 -3 -16 8 -18 132 -18 129 0 136 1 136 20 0 15 -7 20
-25 20 -15 0 -28 7 -32 17 -8 21 27 397 38 415 14 20 26 -5 46 -94 10 -43 21
-78 24 -78 4 0 10 30 13 68 4 37 9 86 13 110 l5 42 -160 0 -159 0 -7 -62z
m115 -213 c-20 -191 -24 -215 -37 -203 -7 7 35 429 44 443 14 21 12 -49 -7
-240z"/>
<path d="M8085 3720 c-8 -14 4 -32 18 -27 26 9 47 -14 47 -50 0 -68 -31 -338
-42 -365 -8 -22 -17 -28 -39 -28 -22 0 -29 -5 -29 -20 0 -19 7 -20 135 -20
128 0 135 1 135 20 0 15 -7 20 -25 20 -34 0 -45 27 -38 96 9 92 12 94 99 94
96 0 128 17 149 79 8 24 15 70 15 102 0 52 -3 60 -31 83 -30 26 -32 26 -209
26 -108 0 -181 -4 -185 -10z m106 -130 c-33 -328 -34 -340 -48 -340 -11 0 -13
8 -9 28 3 15 12 97 21 182 21 216 25 244 36 233 5 -5 5 -46 0 -103z m167 88
c7 -7 12 -40 12 -79 0 -58 -4 -72 -26 -99 -18 -20 -34 -30 -48 -28 -20 3 -21
8 -19 97 1 52 4 100 7 107 7 17 58 18 74 2z m62 -54 c0 -62 -18 -134 -33 -134
-5 0 -6 8 -2 18 4 9 10 52 13 95 5 89 22 104 22 21z"/>
<path d="M8570 3710 c0 -11 6 -20 14 -20 22 0 25 -55 10 -180 -21 -179 -19
-243 9 -276 20 -23 34 -28 86 -32 118 -9 142 29 166 249 17 164 30 217 60 233
55 30 40 46 -46 46 -57 0 -69 -3 -69 -16 0 -9 7 -22 16 -28 9 -7 19 -31 24
-54 8 -48 -12 -282 -29 -335 -13 -38 -46 -60 -82 -55 -24 3 -24 5 -21 98 1 52
8 149 16 215 12 102 17 121 35 133 11 8 21 21 21 28 0 11 -22 14 -105 14 -98
0 -105 -1 -105 -20z m66 -219 c-11 -111 -25 -201 -30 -201 -10 0 -4 116 15
285 12 113 16 128 27 121 4 -2 -1 -95 -12 -205z"/>
<path d="M9000 3715 c0 -8 8 -15 19 -15 44 0 46 -19 28 -222 -10 -104 -23
-198 -30 -209 -7 -11 -23 -19 -39 -19 -21 0 -28 -5 -28 -20 0 -20 5 -20 127
-18 90 2 128 7 130 15 3 7 -7 17 -21 23 -24 9 -26 14 -26 67 0 68 10 133 20
133 4 0 17 -46 29 -102 12 -57 25 -111 27 -120 5 -16 18 -18 100 -18 87 0 94
1 94 20 0 13 -7 20 -19 20 -15 0 -21 12 -31 62 -9 46 -19 69 -41 89 -33 31
-37 49 -11 49 29 0 80 37 97 71 9 17 17 55 17 83 1 119 -12 126 -257 126 -158
0 -185 -2 -185 -15z m278 -44 c20 -24 11 -134 -12 -160 -25 -27 -62 -27 -76 0
-17 31 -2 167 19 179 20 12 52 3 69 -19z m-173 -48 c-3 -38 -10 -102 -15 -143
-5 -41 -12 -110 -15 -152 -4 -43 -11 -78 -16 -78 -12 0 -11 18 6 200 20 211
25 240 36 240 7 0 8 -24 4 -67z m235 -7 c0 -63 -15 -126 -30 -126 -4 0 -4 17
1 38 5 20 9 63 9 95 0 31 5 57 10 57 6 0 10 -28 10 -64z m-95 -188 c42 -189
40 -178 22 -178 -8 0 -20 35 -34 100 -16 80 -18 100 -7 100 8 0 16 -10 19 -22z"/>
<path d="M1712 3108 l3 -23 3859 0 3859 0 2 23 2 22 -3864 0 -3864 0 3 -22z"/>
<path d="M3615 2680 c-3 -5 1 -10 9 -10 8 0 18 5 21 10 3 6 -1 10 -9 10 -8 0
-18 -4 -21 -10z"/>
<path d="M4376 2676 c21 -15 30 -14 19 3 -3 6 -14 11 -23 11 -13 0 -13 -2 4
-14z"/>
<path d="M6198 2683 c7 -3 16 -2 19 1 4 3 -2 6 -13 5 -11 0 -14 -3 -6 -6z"/>
<path d="M6840 2679 c0 -5 5 -7 10 -4 6 3 10 8 10 11 0 2 -4 4 -10 4 -5 0 -10
-5 -10 -11z"/>
<path d="M7000 2680 c0 -5 5 -10 11 -10 5 0 7 5 4 10 -3 6 -8 10 -11 10 -2 0
-4 -4 -4 -10z"/>
<path d="M7910 2680 c0 -5 5 -10 11 -10 5 0 7 5 4 10 -3 6 -8 10 -11 10 -2 0
-4 -4 -4 -10z"/>
<path d="M7965 2680 c-3 -5 -1 -10 4 -10 6 0 11 5 11 10 0 6 -2 10 -4 10 -3 0
-8 -4 -11 -10z"/>
<path d="M4100 2665 c-7 -9 -8 -15 -2 -15 5 0 12 7 16 15 3 8 4 15 2 15 -2 0
-9 -7 -16 -15z"/>
<path d="M4581 2664 c0 -11 3 -14 6 -6 3 7 2 16 -1 19 -3 4 -6 -2 -5 -13z"/>
<path d="M7171 2664 c0 -11 3 -14 6 -6 3 7 2 16 -1 19 -3 4 -6 -2 -5 -13z"/>
<path d="M7614 2661 c21 -23 26 -26 26 -11 0 5 -10 15 -22 21 -23 12 -23 12
-4 -10z"/>
<path d="M7730 2650 c0 -16 2 -30 4 -30 2 0 6 14 8 30 3 17 1 30 -4 30 -4 0
-8 -13 -8 -30z"/>
<path d="M5615 2650 c10 -11 20 -20 23 -20 3 0 -3 9 -13 20 -10 11 -20 20 -23
20 -3 0 3 -9 13 -20z"/>
<path d="M7379 2653 c-13 -17 -13 -17 6 -3 11 8 22 16 24 17 2 2 0 3 -6 3 -6
0 -17 -8 -24 -17z"/>
<path d="M2980 2651 c0 -6 4 -13 10 -16 6 -3 7 1 4 9 -7 18 -14 21 -14 7z"/>
<path d="M3151 2655 c1 -19 18 -51 18 -35 0 8 -4 22 -9 30 -5 8 -9 11 -9 5z"/>
<path d="M3318 2653 c7 -3 16 -2 19 1 4 3 -2 6 -13 5 -11 0 -14 -3 -6 -6z"/>
<path d="M3566 2645 c-3 -9 -6 -22 -5 -28 0 -7 5 -1 10 12 5 13 8 26 5 28 -2
2 -6 -3 -10 -12z"/>
<path d="M4304 2530 c0 -74 1 -105 3 -67 2 37 2 97 0 135 -2 37 -3 6 -3 -68z"/>
<path d="M4476 2645 c-9 -26 -7 -32 5 -12 6 10 9 21 6 23 -2 3 -7 -2 -11 -11z"/>
<path d="M5128 2653 c7 -3 16 -2 19 1 4 3 -2 6 -13 5 -11 0 -14 -3 -6 -6z"/>
<path d="M5302 2630 c0 -19 2 -27 5 -17 2 9 2 25 0 35 -3 9 -5 1 -5 -18z"/>
<path d="M5398 2653 c7 -3 16 -2 19 1 4 3 -2 6 -13 5 -11 0 -14 -3 -6 -6z"/>
<path d="M6280 2653 c0 -4 5 -15 10 -23 8 -13 10 -13 10 2 0 9 -4 20 -10 23
-5 3 -10 3 -10 -2z"/>
<path d="M6930 2630 c0 -16 4 -30 8 -30 5 0 7 14 4 30 -2 17 -6 30 -8 30 -2 0
-4 -13 -4 -30z"/>
<path d="M7828 2653 c6 -2 18 -2 25 0 6 3 1 5 -13 5 -14 0 -19 -2 -12 -5z"/>
<path d="M3126 2637 c3 -10 9 -15 12 -12 3 3 0 11 -7 18 -10 9 -11 8 -5 -6z"/>
<path d="M3892 2610 c0 -19 2 -27 5 -17 2 9 2 25 0 35 -3 9 -5 1 -5 -18z"/>
<path d="M4071 2624 c0 -11 3 -14 6 -6 3 7 2 16 -1 19 -3 4 -6 -2 -5 -13z"/>
<path d="M7172 2620 c0 -14 2 -19 5 -12 2 6 2 18 0 25 -3 6 -5 1 -5 -13z"/>
<path d="M7460 2624 c0 -8 5 -12 10 -9 6 4 8 11 5 16 -9 14 -15 11 -15 -7z"/>
<path d="M7850 2620 c0 -11 4 -20 9 -20 5 0 7 9 4 20 -3 11 -7 20 -9 20 -2 0
-4 -9 -4 -20z"/>
<path d="M4580 2616 c0 -8 -6 -17 -12 -19 -8 -3 -6 -6 5 -6 11 -1 17 6 17 19
0 11 -2 20 -5 20 -3 0 -5 -6 -5 -14z"/>
<path d="M4330 2605 c7 -8 17 -15 22 -15 6 0 5 7 -2 15 -7 8 -17 15 -22 15 -6
0 -5 -7 2 -15z"/>
<path d="M7052 2604 c10 -10 20 -16 22 -13 3 3 -5 11 -17 18 -21 13 -21 12 -5
-5z"/>
<path d="M4450 2600 c0 -5 5 -10 11 -10 5 0 7 5 4 10 -3 6 -8 10 -11 10 -2 0
-4 -4 -4 -10z"/>
<path d="M4518 2598 c5 -5 16 -8 23 -6 8 3 3 7 -10 11 -17 4 -21 3 -13 -5z"/>
<path d="M6650 2600 c0 -5 5 -10 11 -10 5 0 7 5 4 10 -3 6 -8 10 -11 10 -2 0
-4 -4 -4 -10z"/>
<path d="M7281 2594 c0 -11 3 -14 6 -6 3 7 2 16 -1 19 -3 4 -6 -2 -5 -13z"/>
<path d="M7555 2600 c3 -5 8 -10 11 -10 2 0 4 5 4 10 0 6 -5 10 -11 10 -5 0
-7 -4 -4 -10z"/>
<path d="M7785 2600 c-19 -8 -19 -9 3 -9 12 -1 22 4 22 9 0 6 -1 10 -2 9 -2 0
-12 -4 -23 -9z"/>
<path d="M7832 2460 l2 -155 6 140 c3 77 2 147 -2 155 -4 8 -7 -55 -6 -140z"/>
<path d="M7970 2600 c8 -5 26 -10 39 -10 32 0 24 6 -19 14 -25 4 -31 3 -20 -4z"/>
<path d="M3960 2585 c-7 -9 -11 -17 -9 -20 3 -2 10 5 17 15 14 24 10 26 -8 5z"/>
<path d="M5325 2590 c3 -5 8 -10 11 -10 2 0 4 5 4 10 0 6 -5 10 -11 10 -5 0
-7 -4 -4 -10z"/>
<path d="M6858 2593 c7 -3 16 -2 19 1 4 3 -2 6 -13 5 -11 0 -14 -3 -6 -6z"/>
<path d="M3112 2570 c0 -14 2 -19 5 -12 2 6 2 18 0 25 -3 6 -5 1 -5 -13z"/>
<path d="M3141 2574 c0 -11 3 -14 6 -6 3 7 2 16 -1 19 -3 4 -6 -2 -5 -13z"/>
<path d="M6131 2574 c0 -11 3 -14 6 -6 3 7 2 16 -1 19 -3 4 -6 -2 -5 -13z"/>
<path d="M7342 2570 c0 -14 2 -19 5 -12 2 6 2 18 0 25 -3 6 -5 1 -5 -13z"/>
<path d="M7937 2577 c-3 -8 -1 -20 4 -28 6 -10 9 -7 9 14 0 29 -5 35 -13 14z"/>
<path d="M3671 2564 c0 -11 3 -14 6 -6 3 7 2 16 -1 19 -3 4 -6 -2 -5 -13z"/>
<path d="M3320 2555 c0 -8 2 -15 4 -15 2 0 6 7 10 15 3 8 1 15 -4 15 -6 0 -10
-7 -10 -15z"/>
<path d="M3541 2554 c0 -11 3 -14 6 -6 3 7 2 16 -1 19 -3 4 -6 -2 -5 -13z"/>
<path d="M3631 2554 c0 -11 3 -14 6 -6 3 7 2 16 -1 19 -3 4 -6 -2 -5 -13z"/>
<path d="M5304 2485 c0 -49 1 -71 3 -48 2 23 2 64 0 90 -2 26 -3 8 -3 -42z"/>
<path d="M6661 2554 c0 -11 3 -14 6 -6 3 7 2 16 -1 19 -3 4 -6 -2 -5 -13z"/>
<path d="M3893 2480 c0 -47 2 -66 4 -42 2 23 2 61 0 85 -2 23 -4 4 -4 -43z"/>
<path d="M5013 2520 c0 -25 2 -35 4 -22 2 12 2 32 0 45 -2 12 -4 2 -4 -23z"/>
<path d="M5233 2505 c0 -33 2 -45 4 -27 2 18 2 45 0 60 -2 15 -4 0 -4 -33z"/>
<path d="M5540 2554 c0 -13 18 -39 24 -34 2 3 -2 14 -10 24 -8 11 -14 16 -14
10z"/>
<path d="M6221 2544 c0 -11 3 -14 6 -6 3 7 2 16 -1 19 -3 4 -6 -2 -5 -13z"/>
<path d="M7282 2530 c0 -19 2 -27 5 -17 2 9 2 25 0 35 -3 9 -5 1 -5 -18z"/>
<path d="M3083 2495 c0 -27 2 -38 4 -22 2 15 2 37 0 50 -2 12 -4 0 -4 -28z"/>
<path d="M7550 2530 c34 -11 60 -11 35 0 -11 5 -29 8 -40 8 -16 0 -15 -2 5 -8z"/>
<path d="M3621 2514 c0 -11 3 -14 6 -6 3 7 2 16 -1 19 -3 4 -6 -2 -5 -13z"/>
<path d="M4130 2525 c0 -5 5 -17 10 -25 5 -8 10 -10 10 -5 0 6 -5 17 -10 25
-5 8 -10 11 -10 5z"/>
<path d="M5505 2520 c-3 -5 -1 -10 4 -10 6 0 11 5 11 10 0 6 -2 10 -4 10 -3 0
-8 -4 -11 -10z"/>
<path d="M7942 2505 c0 -16 2 -22 5 -12 2 9 2 23 0 30 -3 6 -5 -1 -5 -18z"/>
<path d="M4526 2505 c4 -8 8 -15 10 -15 2 0 4 7 4 15 0 8 -4 15 -10 15 -5 0
-7 -7 -4 -15z"/>
<path d="M3181 2494 c0 -11 3 -14 6 -6 3 7 2 16 -1 19 -3 4 -6 -2 -5 -13z"/>
<path d="M6331 2494 c0 -11 3 -14 6 -6 3 7 2 16 -1 19 -3 4 -6 -2 -5 -13z"/>
<path d="M7390 2500 c8 -5 20 -10 25 -10 6 0 3 5 -5 10 -8 5 -19 10 -25 10 -5
0 -3 -5 5 -10z"/>
<path d="M3120 2495 c0 -5 5 -17 10 -25 5 -8 10 -10 10 -5 0 6 -5 17 -10 25
-5 8 -10 11 -10 5z"/>
<path d="M4495 2490 c-3 -5 -1 -10 4 -10 6 0 11 5 11 10 0 6 -2 10 -4 10 -3 0
-8 -4 -11 -10z"/>
<path d="M3791 2480 c0 -8 4 -22 9 -30 12 -18 12 -2 0 25 -6 13 -9 15 -9 5z"/>
<path d="M6058 2465 c-6 -30 -3 -43 8 -33 3 4 4 19 2 35 l-3 28 -7 -30z"/>
<path d="M3323 2445 c0 -22 2 -30 4 -17 2 12 2 30 0 40 -3 9 -5 -1 -4 -23z"/>
<path d="M6913 2440 c0 -25 2 -35 4 -22 2 12 2 32 0 45 -2 12 -4 2 -4 -23z"/>
<path d="M7458 2473 c7 -3 16 -2 19 1 4 3 -2 6 -13 5 -11 0 -14 -3 -6 -6z"/>
<path d="M5548 2453 c6 -2 18 -2 25 0 6 3 1 5 -13 5 -14 0 -19 -2 -12 -5z"/>
<path d="M7942 2440 c0 -14 2 -19 5 -12 2 6 2 18 0 25 -3 6 -5 1 -5 -13z"/>
<path d="M4180 2441 c0 -6 4 -13 10 -16 6 -3 7 1 4 9 -7 18 -14 21 -14 7z"/>
<path d="M7690 2436 c0 -9 5 -16 10 -16 6 0 10 4 10 9 0 6 -4 13 -10 16 -5 3
-10 -1 -10 -9z"/>
<path d="M3501 2424 c0 -11 3 -14 6 -6 3 7 2 16 -1 19 -3 4 -6 -2 -5 -13z"/>
<path d="M3690 2429 c0 -5 5 -7 10 -4 6 3 10 8 10 11 0 2 -4 4 -10 4 -5 0 -10
-5 -10 -11z"/>
<path d="M6160 2430 c0 -5 5 -10 11 -10 5 0 7 5 4 10 -3 6 -8 10 -11 10 -2 0
-4 -4 -4 -10z"/>
<path d="M7282 2420 c0 -14 2 -19 5 -12 2 6 2 18 0 25 -3 6 -5 1 -5 -13z"/>
<path d="M3251 2414 c0 -11 3 -14 6 -6 3 7 2 16 -1 19 -3 4 -6 -2 -5 -13z"/>
<path d="M3648 2423 c6 -2 18 -2 25 0 6 3 1 5 -13 5 -14 0 -19 -2 -12 -5z"/>
<path d="M3725 2420 c-3 -5 -1 -10 4 -10 6 0 11 5 11 10 0 6 -2 10 -4 10 -3 0
-8 -4 -11 -10z"/>
<path d="M4768 2423 c7 -3 16 -2 19 1 4 3 -2 6 -13 5 -11 0 -14 -3 -6 -6z"/>
<path d="M5137 2415 c-8 -8 -16 -12 -19 -10 -2 2 -4 -5 -5 -15 -1 -11 3 -23 9
-26 7 -4 8 -2 4 5 -9 14 10 40 39 51 16 7 16 9 3 9 -9 1 -23 -6 -31 -14z"/>
<path d="M6356 2405 c-3 -9 -6 -22 -5 -28 0 -7 5 -1 10 12 5 13 8 26 5 28 -2
2 -6 -3 -10 -12z"/>
<path d="M3675 2401 c3 -6 -12 -12 -32 -14 l-38 -4 36 -1 c22 -1 42 4 49 13
10 12 9 15 -4 15 -10 0 -15 -4 -11 -9z"/>
<path d="M4190 2400 c-9 -6 -10 -10 -3 -10 6 0 15 5 18 10 8 12 4 12 -15 0z"/>
<path d="M4510 2402 c0 -5 7 -9 15 -9 8 0 12 4 9 9 -3 4 -9 8 -15 8 -5 0 -9
-4 -9 -8z"/>
<path d="M4576 2397 c3 -10 9 -15 12 -12 3 3 0 11 -7 18 -10 9 -11 8 -5 -6z"/>
<path d="M7340 2395 c0 -8 2 -15 4 -15 2 0 6 7 10 15 3 8 1 15 -4 15 -6 0 -10
-7 -10 -15z"/>
<path d="M7382 2398 c-15 -15 -16 -28 -2 -28 6 0 9 6 8 13 -2 7 9 12 29 12 17
0 29 3 26 7 -7 12 -48 9 -61 -4z"/>
<path d="M3230 2390 c0 -6 7 -10 15 -10 8 0 15 2 15 4 0 2 -7 6 -15 10 -8 3
-15 1 -15 -4z"/>
<path d="M3406 2385 c4 -8 11 -15 16 -15 6 0 5 6 -2 15 -7 8 -14 15 -16 15 -2
0 -1 -7 2 -15z"/>
<path d="M3502 2380 c0 -14 2 -19 5 -12 2 6 2 18 0 25 -3 6 -5 1 -5 -13z"/>
<path d="M3710 2390 c0 -5 5 -10 11 -10 5 0 7 5 4 10 -3 6 -8 10 -11 10 -2 0
-4 -4 -4 -10z"/>
<path d="M4205 2379 c-4 -6 -5 -12 -2 -15 2 -3 7 2 10 11 7 17 1 20 -8 4z"/>
<path d="M4487 2369 c4 -13 8 -18 11 -10 2 7 -1 18 -6 23 -8 8 -9 4 -5 -13z"/>
<path d="M5300 2381 c0 -6 5 -11 10 -11 6 0 10 -9 10 -20 0 -11 4 -20 9 -20
13 0 2 37 -15 51 -10 8 -14 8 -14 0z"/>
<path d="M6026 2364 c-4 -14 -5 -28 -3 -31 3 -2 8 8 11 23 4 14 5 28 3 31 -3
2 -8 -8 -11 -23z"/>
<path d="M7565 2380 c-3 -5 -1 -10 4 -10 6 0 11 5 11 10 0 6 -2 10 -4 10 -3 0
-8 -4 -11 -10z"/>
<path d="M7661 2383 c-2 -20 11 -43 20 -37 5 3 9 10 9 15 0 6 -4 8 -9 4 -5 -3
-12 3 -14 12 -3 10 -5 13 -6 6z"/>
<path d="M4003 2345 c0 -22 2 -30 4 -17 2 12 2 30 0 40 -3 9 -5 -1 -4 -23z"/>
<path d="M3720 2356 c0 -9 5 -16 10 -16 6 0 10 4 10 9 0 6 -4 13 -10 16 -5 3
-10 -1 -10 -9z"/>
<path d="M3795 2360 c-3 -5 -1 -10 4 -10 6 0 11 5 11 10 0 6 -2 10 -4 10 -3 0
-8 -4 -11 -10z"/>
<path d="M3891 2354 c0 -11 3 -14 6 -6 3 7 2 16 -1 19 -3 4 -6 -2 -5 -13z"/>
<path d="M4230 2365 c0 -5 5 -17 10 -25 5 -8 10 -10 10 -5 0 6 -5 17 -10 25
-5 8 -10 11 -10 5z"/>
<path d="M5010 2360 c0 -5 5 -10 11 -10 5 0 7 5 4 10 -3 6 -8 10 -11 10 -2 0
-4 -4 -4 -10z"/>
<path d="M6367 2351 c-4 -17 -3 -21 5 -13 5 5 8 16 6 23 -3 8 -7 3 -11 -10z"/>
<path d="M6526 2355 c-9 -26 -7 -32 5 -12 6 10 9 21 6 23 -2 3 -7 -2 -11 -11z"/>
<path d="M6910 2346 c0 -14 4 -27 8 -30 5 -3 6 8 4 25 -5 35 -12 38 -12 5z"/>
<path d="M7942 2345 c0 -16 2 -22 5 -12 2 9 2 23 0 30 -3 6 -5 -1 -5 -18z"/>
<path d="M3150 2356 c0 -2 8 -10 18 -17 15 -13 16 -12 3 4 -13 16 -21 21 -21
13z"/>
<path d="M3608 2353 c7 -3 16 -2 19 1 4 3 -2 6 -13 5 -11 0 -14 -3 -6 -6z"/>
<path d="M4320 2355 c0 -5 5 -17 10 -25 5 -8 10 -10 10 -5 0 6 -5 17 -10 25
-5 8 -10 11 -10 5z"/>
<path d="M3320 2342 c0 -5 7 -9 15 -9 8 0 12 4 9 9 -3 4 -9 8 -15 8 -5 0 -9
-4 -9 -8z"/>
<path d="M3515 2339 c-4 -6 -5 -12 -2 -15 2 -3 7 2 10 11 7 17 1 20 -8 4z"/>
<path d="M3551 2334 c0 -11 3 -14 6 -6 3 7 2 16 -1 19 -3 4 -6 -2 -5 -13z"/>
<path d="M3837 2329 c4 -13 8 -18 11 -10 2 7 -1 18 -6 23 -8 8 -9 4 -5 -13z"/>
<path d="M5185 2339 c-11 -17 1 -21 15 -4 8 9 8 15 2 15 -6 0 -14 -5 -17 -11z"/>
<path d="M4572 2325 c-11 -12 -10 -15 3 -15 8 0 15 7 15 15 0 18 -2 18 -18 0z"/>
<path d="M7645 2330 c3 -5 8 -10 11 -10 2 0 4 5 4 10 0 6 -5 10 -11 10 -5 0
-7 -4 -4 -10z"/>
<path d="M3727 2319 c7 -7 15 -10 18 -7 3 3 -2 9 -12 12 -14 6 -15 5 -6 -5z"/>
<path d="M5300 2320 c0 -5 5 -10 11 -10 5 0 7 5 4 10 -3 6 -8 10 -11 10 -2 0
-4 -4 -4 -10z"/>
<path d="M6665 2320 c-3 -5 -1 -10 4 -10 6 0 11 5 11 10 0 6 -2 10 -4 10 -3 0
-8 -4 -11 -10z"/>
<path d="M7405 2320 c-3 -5 -1 -10 4 -10 6 0 11 5 11 10 0 6 -2 10 -4 10 -3 0
-8 -4 -11 -10z"/>
<path d="M7617 2319 c7 -7 15 -10 18 -7 3 3 -2 9 -12 12 -14 6 -15 5 -6 -5z"/>
<path d="M5028 2303 c12 -2 30 -2 40 0 9 3 -1 5 -23 4 -22 0 -30 -2 -17 -4z"/>
<path d="M7488 2303 c17 -2 47 -2 65 0 17 2 3 4 -33 4 -36 0 -50 -2 -32 -4z"/>
</g>
</svg>
